<svg xmlns="http://www.w3.org/2000/svg" width="118" height="117" viewBox="0 0 118 117" fill="none">
<g filter="url(#filter0_f_430_821)">
<path d="M6.70605 110.432L14.0773 83.6407C9.545 75.8012 7.1293 66.8959 7.15422 57.792C7.15422 29.2639 30.4639 6.0697 59.1034 6.0697C72.9995 6.0697 86.0491 11.4529 95.8366 21.2266C105.648 31.0003 111.053 43.9992 111.028 57.8168C111.028 86.3445 87.7176 109.539 59.0785 109.539H59.0536C50.3623 109.539 41.8201 107.356 34.2245 103.238L6.70605 110.432ZM35.5196 93.8608L37.0884 94.8038C43.7129 98.7231 51.3085 100.782 59.0536 100.807H59.0785C82.8617 100.807 102.236 81.5319 102.236 57.8168C102.236 46.331 97.7538 35.5403 89.6104 27.4033C81.4669 19.2667 70.6087 14.8016 59.0785 14.8016C35.2704 14.8016 15.8954 34.0765 15.8954 57.7915C15.8954 65.9037 18.1615 73.8169 22.4949 80.6638L23.5159 82.301L19.158 98.1526L35.5196 93.8608Z" fill="black" fill-opacity="0.24"/>
</g>
<path d="M9.0625 107.667L16.0965 82.114C11.7591 74.6191 9.47748 66.1195 9.48059 57.4684C9.48059 30.2745 31.7143 8.15204 58.9892 8.15204C72.2459 8.15204 84.6665 13.2968 94.0122 22.6061C103.358 31.9159 108.499 44.3125 108.499 57.4928C108.499 84.6864 86.2649 106.809 58.9896 106.809H58.9651C50.6765 106.809 42.5356 104.726 35.3048 100.807L9.0625 107.667Z" fill="url(#paint0_linear_430_821)"/>
<path d="M7.2666 109.455L14.5464 82.9961C10.0703 75.2546 7.68426 66.4593 7.70918 57.4684C7.70918 29.2947 30.7297 6.38818 59.0139 6.38818C72.7372 6.38818 85.6244 11.7041 95.2907 21.3567C104.981 31.0093 110.318 43.8468 110.293 57.4928C110.293 85.6665 87.2727 108.573 58.9885 108.573H58.9645C50.3975 108.57 41.9677 106.43 34.4435 102.35L7.2666 109.455ZM35.7222 93.0896L37.2717 94.0205C43.8141 97.8915 51.3152 99.925 58.9645 99.9494H58.9889C82.4765 99.9494 101.611 80.9138 101.611 57.4928C101.611 46.15 97.1843 35.4928 89.1418 27.4572C81.0994 19.4217 70.3761 15.0118 58.9889 15.0118C35.4764 15.0118 16.342 34.0474 16.342 57.4684C16.342 65.4796 18.5798 73.2947 22.8595 80.0561L23.868 81.6731L19.5638 97.3278L35.7222 93.0896Z" fill="white"/>
<path d="M84.7812 47.7811C84.7812 49.1856 84.4707 50.4897 83.8497 51.6935C83.2287 52.8973 82.381 53.9171 81.3068 54.7531C81.4747 55.4219 81.5586 56.0405 81.5586 56.609C81.5586 58.8159 80.7697 60.7052 79.192 62.2768C77.6142 63.8484 75.7175 64.6343 73.502 64.6343C72.327 64.6343 71.1689 64.3667 70.0275 63.8317C69.1547 65.069 68.0302 66.047 66.6538 66.766C65.2775 67.4849 63.8004 67.8444 62.2227 67.8444C60.4435 67.8444 58.807 67.3929 57.3131 66.4901C55.8193 65.5873 54.6528 64.3667 53.8135 62.8286C52.5379 64.0324 51.0441 64.6343 49.332 64.6343C47.5529 64.6343 46.0338 64.0073 44.775 62.7533C43.5161 61.4994 42.8867 59.9863 42.8867 58.214C40.2012 58.214 37.9185 57.2777 36.0386 55.4052C34.1587 53.5326 33.2188 51.2588 33.2188 48.5837C33.2188 45.9086 34.1587 43.6347 36.0386 41.7622C37.9185 39.8896 40.2012 38.9533 42.8867 38.9533C44.2631 38.9533 45.5891 39.2375 46.8647 39.806C47.6703 37.6659 49.0299 35.9188 50.9434 34.5645C52.8568 33.2102 55.0052 32.5331 57.3887 32.5331C59.0671 32.5331 60.6449 32.8925 62.1219 33.6115C63.599 34.3304 64.8746 35.3085 65.9489 36.5457C66.4188 35.3419 67.1909 34.3722 68.2651 33.6366C69.3394 32.9009 70.5479 32.5331 71.8906 32.5331C73.6698 32.5331 75.1888 33.1601 76.4477 34.414C77.7065 35.668 78.3359 37.1811 78.3359 38.9533C78.3359 38.9868 78.3275 39.0453 78.3108 39.1289C78.294 39.2125 78.2856 39.271 78.2856 39.3044C80.199 39.8394 81.76 40.8844 82.9685 42.4393C84.177 43.9942 84.7812 45.7748 84.7812 47.7811ZM42.8867 77.4747C43.7931 77.4747 44.5568 77.784 45.1778 78.4026C45.7989 79.0213 46.1094 79.7736 46.1094 80.6598C46.1094 81.5459 45.7905 82.3066 45.1526 82.9419C44.5148 83.5773 43.7511 83.895 42.8615 83.895C41.972 83.895 41.2166 83.5773 40.5956 82.9419C39.9746 82.3066 39.6641 81.5542 39.6641 80.6848C39.6641 79.8154 39.9746 79.0631 40.5956 78.4277C41.2166 77.7924 41.9803 77.4747 42.8867 77.4747ZM50.9434 67.8444C52.2861 67.8444 53.4275 68.3125 54.3674 69.2488C55.3074 70.1851 55.7773 71.322 55.7773 72.6595C55.7773 73.9971 55.3074 75.134 54.3674 76.0703C53.4275 77.0066 52.2861 77.4747 50.9434 77.4747C49.6006 77.4747 48.4592 77.0066 47.5193 76.0703C46.5793 75.134 46.1094 73.9971 46.1094 72.6595C46.1094 71.322 46.5793 70.1851 47.5193 69.2488C48.4592 68.3125 49.6006 67.8444 50.9434 67.8444Z" fill="white"/>
<defs>
<filter id="filter0_f_430_821" x="0.706055" y="0.0697021" width="116.321" height="116.362" filterUnits="userSpaceOnUse" color-interpolation-filters="sRGB">
<feFlood flood-opacity="0" result="BackgroundImageFix"/>
<feBlend mode="normal" in="SourceGraphic" in2="BackgroundImageFix" result="shape"/>
<feGaussianBlur stdDeviation="3" result="effect1_foregroundBlur_430_821"/>
</filter>
<linearGradient id="paint0_linear_430_821" x1="58.7786" y1="107.66" x2="58.7786" y2="8.14607" gradientUnits="userSpaceOnUse">
<stop offset="0.9999" stop-color="#007FFF"/>
<stop offset="1" stop-color="#60D66A"/>
</linearGradient>
</defs>
</svg>